# xmcd
#
# Track frame offsets: 
#        150
#        12932
#        23690
#        36347
#        47112
#        58779
#        72096
#        85735
#        98299
#        110887
#        120034
#        142219
#
# Disc length: 2044 seconds
#
# Revision: 0
# Processed by: cddbd v1.5.2PL0 Copyright (c) Steve Scherf et al.
# Submitted via: ExactAudioCopy v0.95b3
#
DISCID=9807fa0c
DTITLE=The Everly Brothers - Sing
DYEAR=1967
DGENRE=Pop
TTITLE0=Bowling Green
TTITLE1=A Voice Within
TTITLE2=I Don't Want To Love You
TTITLE3=It's All Over
TTITLE4=Deliver Me
TTITLE5=Talking To The Flowers
TTITLE6=Mary Jane
TTITLE7=I'm Finding It Rough
TTITLE8=Do You
TTITLE9=Somebody Help Me
TTITLE10=A Whiter Shade Of Pale
TTITLE11=Mercy, Mercy, Mercy
EXTD=
EXTT0=
EXTT1=
EXTT2=
EXTT3=
EXTT4=
EXTT5=
EXTT6=
EXTT7=
EXTT8=
EXTT9=
EXTT10=
EXTT11=
PLAYORDER=
